
<svg width="32" height="28" viewBox="0 0 32 28" fill="none" xmlns="http://www.w3.org/2000/svg">
<g id="dark:avatar-solid" clip-path="url(#clip0_293_5777)">
<path id="Vector" d="M27.8369 23.6012C26.3285 21.9669 24.498 20.6626 22.4607 19.7706C20.4234 18.8785 18.2235 18.418 15.9994 18.418C13.7754 18.418 11.5755 18.8785 9.53818 19.7706C7.5009 20.6626 5.67041 21.9669 4.162 23.6012C3.92912 23.8587 3.79885 24.1928 3.7959 24.54V30.1724C3.80083 30.5426 3.95136 30.8959 4.2149 31.1559C4.47844 31.4159 4.83378 31.5617 5.204 31.5617H26.7949C27.1683 31.5617 27.5265 31.4133 27.7905 31.1493C28.0546 30.8852 28.203 30.527 28.203 30.1536V24.5212C28.1955 24.1805 28.0655 23.8539 27.8369 23.6012Z" fill="#000"/>
<path id="Vector_2" d="M15.9998 16.5427C19.629 16.5427 22.571 13.6007 22.571 9.97152C22.571 6.34239 19.629 3.40039 15.9998 3.40039C12.3707 3.40039 9.42871 6.34239 9.42871 9.97152C9.42871 13.6007 12.3707 16.5427 15.9998 16.5427Z" fill="#000"/>
</g>
<defs>
<clipPath id="clip0_293_5777">
<rect width="33.7944" height="33.7944" fill="black" transform="translate(-0.897461 0.583984)"/>
</clipPath>
</defs>
</svg>
